<svg width="74" height="12" viewBox="0 0 74 12" fill="none" xmlns="http://www.w3.org/2000/svg">
<path d="M1.00781 2.89453C1.00781 2.5625 1.00391 2.27344 0.996094 2.02734C0.988281 1.77734 0.976562 1.5625 0.960938 1.38281C0.945312 1.19922 0.925781 1.04688 0.902344 0.925781C0.882812 0.804687 0.861328 0.703125 0.837891 0.621094V0.597656C0.916016 0.601563 0.998047 0.603516 1.08398 0.603516C1.1582 0.607422 1.24023 0.609375 1.33008 0.609375C1.42383 0.609375 1.51953 0.609375 1.61719 0.609375C1.75781 0.609375 1.94727 0.595703 2.18555 0.568359C2.42773 0.541016 2.73828 0.527344 3.11719 0.527344C3.46875 0.527344 3.79297 0.574219 4.08984 0.667969C4.38672 0.757812 4.64258 0.888672 4.85742 1.06055C5.07617 1.23242 5.24609 1.44531 5.36719 1.69922C5.49219 1.94922 5.55469 2.23438 5.55469 2.55469C5.55469 2.82422 5.51758 3.06641 5.44336 3.28125C5.36914 3.49219 5.26367 3.67773 5.12695 3.83789C4.99414 3.99414 4.83203 4.12695 4.64062 4.23633C4.45312 4.3418 4.24609 4.42578 4.01953 4.48828C4.35156 4.53906 4.6543 4.625 4.92773 4.74609C5.20117 4.86328 5.43555 5.01172 5.63086 5.19141C5.83008 5.37109 5.98242 5.58203 6.08789 5.82422C6.19727 6.0625 6.25195 6.32812 6.25195 6.62109C6.25195 7.44531 5.98047 8.06445 5.4375 8.47852C4.89453 8.88867 4.08203 9.09375 3 9.09375C2.88281 9.09375 2.74609 9.08789 2.58984 9.07617C2.43359 9.06836 2.27344 9.05859 2.10938 9.04688C1.94922 9.03516 1.79102 9.02344 1.63477 9.01172C1.47852 9.00391 1.3418 9 1.22461 9H0.837891V8.97656C0.861328 8.89453 0.882812 8.79297 0.902344 8.67188C0.925781 8.55078 0.945312 8.40039 0.960938 8.2207C0.976562 8.04102 0.988281 7.82812 0.996094 7.58203C1.00391 7.33203 1.00781 7.04102 1.00781 6.70898V2.89453ZM3.1582 4.8457C2.89258 4.8457 2.66992 4.85547 2.49023 4.875C2.31055 4.89453 2.17188 4.91406 2.07422 4.93359V6.70898C2.07422 7.16602 2.08203 7.54297 2.09766 7.83984C2.11328 8.13672 2.13477 8.37891 2.16211 8.56641C2.31055 8.58594 2.45898 8.60352 2.60742 8.61914C2.75586 8.63477 2.875 8.64258 2.96484 8.64258C3.69531 8.64258 4.22852 8.48047 4.56445 8.15625C4.9043 7.82812 5.07422 7.32617 5.07422 6.65039C5.07422 6.38477 5.0332 6.14258 4.95117 5.92383C4.87305 5.70117 4.75391 5.50977 4.59375 5.34961C4.4375 5.18945 4.23828 5.06641 3.99609 4.98047C3.75781 4.89062 3.47852 4.8457 3.1582 4.8457ZM2.07422 4.40625C2.18359 4.41797 2.28125 4.42578 2.36719 4.42969C2.45312 4.42969 2.54492 4.42969 2.64258 4.42969C2.9082 4.42969 3.15039 4.39258 3.36914 4.31836C3.58789 4.24023 3.77344 4.125 3.92578 3.97266C4.08203 3.82031 4.20312 3.63086 4.28906 3.4043C4.375 3.17383 4.41797 2.90625 4.41797 2.60156C4.41797 2.34766 4.38672 2.11719 4.32422 1.91016C4.26172 1.70312 4.16797 1.52734 4.04297 1.38281C3.92188 1.23438 3.77148 1.12109 3.5918 1.04297C3.41211 0.964844 3.20703 0.925781 2.97656 0.925781C2.82812 0.925781 2.69727 0.931641 2.58398 0.943359C2.47461 0.955078 2.38086 0.96875 2.30273 0.984375C2.21289 1 2.13672 1.01953 2.07422 1.04297V4.40625ZM11.2734 7.01953C11.168 7.01953 11.0352 7.01953 10.875 7.01953C10.7188 7.01953 10.5469 7.01953 10.3594 7.01953C10.1719 7.01953 9.97852 7.01953 9.7793 7.01953C9.58008 7.01953 9.39062 7.02148 9.21094 7.02539C9.03125 7.02539 8.86719 7.02734 8.71875 7.03125C8.57031 7.03125 8.45508 7.03125 8.37305 7.03125L8.15625 7.48828C8.0625 7.67578 7.98242 7.83984 7.91602 7.98047C7.84961 8.11719 7.79492 8.23828 7.75195 8.34375C7.70898 8.44922 7.67773 8.54102 7.6582 8.61914C7.63867 8.69336 7.62891 8.76367 7.62891 8.83008C7.62891 8.87305 7.63086 8.90625 7.63477 8.92969C7.63867 8.94922 7.64453 8.96484 7.65234 8.97656V9H6.62109V8.97656C6.64844 8.94922 6.69141 8.89062 6.75 8.80078C6.80859 8.70703 6.875 8.59375 6.94922 8.46094C7.02734 8.32812 7.10938 8.17773 7.19531 8.00977C7.28516 7.8418 7.37305 7.66797 7.45898 7.48828L9.84961 2.55469H10.2891L12.6328 7.48828C12.7227 7.67578 12.8125 7.85547 12.9023 8.02734C12.9961 8.19922 13.082 8.35352 13.1602 8.49023C13.2383 8.62305 13.3066 8.73438 13.3652 8.82422C13.4238 8.91016 13.4629 8.96094 13.4824 8.97656V9H11.9824C11.9902 8.96875 11.9941 8.94141 11.9941 8.91797C11.9941 8.89062 11.9941 8.86133 11.9941 8.83008C11.9941 8.74414 11.9746 8.64062 11.9355 8.51953C11.9004 8.39844 11.8555 8.27539 11.8008 8.15039C11.75 8.02148 11.6953 7.89844 11.6367 7.78125C11.582 7.66406 11.5371 7.56641 11.502 7.48828L11.2734 7.01953ZM8.60156 6.5625H8.95898C9.12305 6.5625 9.29688 6.5625 9.48047 6.5625C9.66797 6.55859 9.85547 6.55664 10.043 6.55664C10.2305 6.55664 10.4121 6.55664 10.5879 6.55664C10.7637 6.55273 10.9219 6.55078 11.0625 6.55078L9.84961 3.96094L8.60156 6.5625ZM19.957 8.29102C19.957 8.3418 19.9512 8.38477 19.9395 8.41992C19.9316 8.45508 19.9102 8.48438 19.875 8.50781C19.5977 8.70312 19.2734 8.85938 18.9023 8.97656C18.5352 9.08984 18.1035 9.14648 17.6074 9.14648C17.0488 9.14648 16.5391 9.06641 16.0781 8.90625C15.6211 8.74609 15.2285 8.52344 14.9004 8.23828C14.5723 7.94922 14.3164 7.60352 14.1328 7.20117C13.9531 6.79883 13.8633 6.35352 13.8633 5.86523C13.8633 5.44727 13.9453 5.04102 14.1094 4.64648C14.2773 4.25195 14.5176 3.90234 14.8301 3.59766C15.1426 3.29297 15.5215 3.04883 15.9668 2.86523C16.416 2.68164 16.9219 2.58984 17.4844 2.58984C17.7773 2.58984 18.0547 2.60742 18.3164 2.64258C18.5781 2.67383 18.8301 2.72461 19.0723 2.79492L19.5117 3.84961L19.4531 3.89062C19.2188 3.62109 18.9355 3.4082 18.6035 3.25195C18.2715 3.0918 17.8906 3.01172 17.4609 3.01172C17.1094 3.01172 16.7852 3.06836 16.4883 3.18164C16.1953 3.29492 15.9395 3.46094 15.7207 3.67969C15.5059 3.89453 15.3379 4.16016 15.2168 4.47656C15.0957 4.79297 15.0352 5.15234 15.0352 5.55469C15.0352 6.00781 15.0918 6.42773 15.2051 6.81445C15.3184 7.20117 15.4883 7.53711 15.7148 7.82227C15.9414 8.10352 16.2207 8.32422 16.5527 8.48438C16.8887 8.64453 17.2793 8.72461 17.7246 8.72461C18.1074 8.72461 18.4043 8.67578 18.6152 8.57812C18.8301 8.48047 18.9375 8.36914 18.9375 8.24414V7.93359C18.9375 7.73047 18.9355 7.55469 18.9316 7.40625C18.9277 7.25781 18.9219 7.13086 18.9141 7.02539C18.9062 6.91602 18.8945 6.82227 18.8789 6.74414C18.8672 6.66602 18.8516 6.59375 18.832 6.52734V6.50391H20.0801V6.52734C20.0605 6.58594 20.043 6.65625 20.0273 6.73828C20.0117 6.82031 19.998 6.91797 19.9863 7.03125C19.9785 7.14453 19.9707 7.27734 19.9629 7.42969C19.959 7.58203 19.957 7.75781 19.957 7.95703V8.29102ZM24.1523 3.92578H24.0352C24.0117 3.85938 23.9727 3.77539 23.918 3.67383C23.8672 3.57227 23.7969 3.47266 23.707 3.375C23.6211 3.27734 23.5137 3.19531 23.3848 3.12891C23.2559 3.05859 23.1016 3.02344 22.9219 3.02344C22.7852 3.02344 22.6621 3.04688 22.5527 3.09375C22.4473 3.13672 22.3574 3.19727 22.2832 3.27539C22.209 3.35352 22.1523 3.44727 22.1133 3.55664C22.0742 3.66211 22.0547 3.77734 22.0547 3.90234C22.0547 4.10547 22.1152 4.29883 22.2363 4.48242C22.3613 4.66602 22.5156 4.84961 22.6992 5.0332C22.8828 5.21289 23.082 5.39453 23.2969 5.57812C23.5117 5.76172 23.7109 5.95312 23.8945 6.15234C24.0781 6.35156 24.2305 6.5625 24.3516 6.78516C24.4766 7.00781 24.5391 7.24609 24.5391 7.5C24.5391 7.6875 24.5039 7.88086 24.4336 8.08008C24.3672 8.2793 24.2578 8.45898 24.1055 8.61914C23.9531 8.7793 23.7578 8.91016 23.5195 9.01172C23.2812 9.11719 22.9922 9.16992 22.6523 9.16992C22.4648 9.16992 22.2852 9.1543 22.1133 9.12305C21.9453 9.0918 21.7891 9.05273 21.6445 9.00586C21.5039 8.96289 21.377 8.91602 21.2637 8.86523C21.1543 8.81055 21.0625 8.75977 20.9883 8.71289L21.0938 7.60547H21.2168C21.2559 7.74219 21.3125 7.87891 21.3867 8.01562C21.4648 8.15234 21.5586 8.27734 21.668 8.39062C21.7812 8.5 21.9121 8.58984 22.0605 8.66016C22.2129 8.72656 22.3867 8.75977 22.582 8.75977C22.7188 8.75977 22.8477 8.73828 22.9688 8.69531C23.0898 8.64844 23.1934 8.58398 23.2793 8.50195C23.3691 8.41992 23.4395 8.32031 23.4902 8.20312C23.541 8.08203 23.5664 7.94727 23.5664 7.79883C23.5664 7.62305 23.5312 7.46094 23.4609 7.3125C23.3906 7.16016 23.2969 7.01562 23.1797 6.87891C23.0625 6.73828 22.9297 6.60352 22.7812 6.47461C22.6367 6.3457 22.4863 6.21484 22.3301 6.08203C22.1738 5.94922 22.0215 5.81445 21.873 5.67773C21.7285 5.53711 21.5977 5.38672 21.4805 5.22656C21.3633 5.06641 21.2695 4.89648 21.1992 4.7168C21.1289 4.5332 21.0938 4.33203 21.0938 4.11328C21.0938 3.88281 21.1426 3.67578 21.2402 3.49219C21.3379 3.30859 21.4668 3.1543 21.627 3.0293C21.7871 2.90039 21.9707 2.80273 22.1777 2.73633C22.3848 2.66602 22.5996 2.63086 22.8223 2.63086C22.9863 2.63086 23.1387 2.64258 23.2793 2.66602C23.4238 2.68945 23.5527 2.71875 23.666 2.75391C23.7832 2.78516 23.8848 2.81836 23.9707 2.85352C24.0566 2.88477 24.127 2.91016 24.1816 2.92969L24.1523 3.92578ZM32.5195 5.85352C32.375 6.63086 32.0664 7.28711 31.5938 7.82227C31.9922 8.2207 32.4004 8.58984 32.8184 8.92969C33.2363 9.26562 33.6465 9.55859 34.0488 9.80859C34.4551 10.0586 34.8457 10.2539 35.2207 10.3945C35.5957 10.5352 35.9395 10.6055 36.252 10.6055C36.377 10.6055 36.502 10.5938 36.627 10.5703V10.7051C36.5801 10.7246 36.5176 10.752 36.4395 10.7871C36.3652 10.8223 36.2715 10.8555 36.1582 10.8867C36.0488 10.918 35.918 10.9453 35.7656 10.9688C35.6172 10.9922 35.4473 11.0039 35.2559 11.0039C34.9512 11.0039 34.6211 10.9395 34.2656 10.8105C33.9141 10.6855 33.5488 10.5098 33.1699 10.2832C32.791 10.0605 32.4062 9.79492 32.0156 9.48633C31.6289 9.17773 31.25 8.83984 30.8789 8.47266C30.5391 8.70312 30.1641 8.88086 29.7539 9.00586C29.3477 9.13086 28.9023 9.19336 28.418 9.19336C27.9805 9.19336 27.5859 9.13867 27.2344 9.0293C26.8867 8.91992 26.5918 8.76367 26.3496 8.56055C26.1074 8.35742 25.9199 8.11133 25.7871 7.82227C25.6582 7.5332 25.5938 7.20898 25.5938 6.84961C25.5938 6.50586 25.6582 6.20117 25.7871 5.93555C25.916 5.66602 26.084 5.42383 26.291 5.20898C26.502 4.99414 26.7422 4.79883 27.0117 4.62305C27.2812 4.44727 27.5566 4.27734 27.8379 4.11328C27.7246 3.82031 27.6367 3.53516 27.5742 3.25781C27.5117 2.98047 27.4805 2.71484 27.4805 2.46094C27.4805 2.15234 27.5293 1.875 27.627 1.62891C27.7285 1.37891 27.8652 1.16797 28.0371 0.996094C28.209 0.824219 28.4102 0.691406 28.6406 0.597656C28.875 0.503906 29.125 0.457031 29.3906 0.457031C29.5859 0.457031 29.7695 0.484375 29.9414 0.539062C30.1133 0.59375 30.2617 0.675781 30.3867 0.785156C30.5156 0.890625 30.6172 1.02344 30.6914 1.18359C30.7656 1.34375 30.8027 1.5293 30.8027 1.74023C30.8027 2.00586 30.7461 2.24414 30.6328 2.45508C30.5234 2.66602 30.377 2.85938 30.1934 3.03516C30.0137 3.21094 29.8066 3.375 29.5723 3.52734C29.3379 3.67969 29.0957 3.82812 28.8457 3.97266C28.9707 4.26562 29.1191 4.5625 29.291 4.86328C29.4668 5.16406 29.6582 5.46484 29.8652 5.76562C30.0723 6.0625 30.2949 6.35547 30.5332 6.64453C30.7715 6.93359 31.0176 7.21484 31.2715 7.48828C31.459 7.23438 31.6055 6.94531 31.7109 6.62109C31.8203 6.29688 31.875 5.94141 31.875 5.55469C31.875 5.22656 31.8555 4.95312 31.8164 4.73438C31.7812 4.51172 31.7441 4.32227 31.7051 4.16602V4.14258H32.7598V4.16602C32.7324 4.25977 32.7109 4.36523 32.6953 4.48242C32.6836 4.5957 32.6699 4.72266 32.6543 4.86328C32.6387 5 32.6211 5.15234 32.6016 5.32031C32.582 5.48438 32.5547 5.66211 32.5195 5.85352ZM28.8574 8.66602C29.1777 8.66602 29.4824 8.62305 29.7715 8.53711C30.0645 8.45117 30.332 8.32617 30.5742 8.16211C30.3086 7.88086 30.0508 7.5918 29.8008 7.29492C29.5508 6.99414 29.3164 6.68945 29.0977 6.38086C28.8789 6.06836 28.6758 5.75586 28.4883 5.44336C28.3047 5.12695 28.1445 4.81641 28.0078 4.51172C27.8242 4.63672 27.6523 4.76758 27.4922 4.9043C27.3359 5.04102 27.1992 5.19141 27.082 5.35547C26.9648 5.51953 26.8711 5.69922 26.8008 5.89453C26.7344 6.08594 26.7012 6.29688 26.7012 6.52734C26.7012 6.83203 26.7539 7.11523 26.8594 7.37695C26.9688 7.63867 27.1191 7.86523 27.3105 8.05664C27.502 8.24805 27.7285 8.39844 27.9902 8.50781C28.2559 8.61328 28.5449 8.66602 28.8574 8.66602ZM28.418 2.15039C28.418 2.37695 28.4434 2.61133 28.4941 2.85352C28.5449 3.0918 28.6152 3.33984 28.7051 3.59766C28.8965 3.47656 29.0742 3.35156 29.2383 3.22266C29.4062 3.09375 29.5508 2.95508 29.6719 2.80664C29.7969 2.6543 29.8945 2.49219 29.9648 2.32031C30.0352 2.14844 30.0703 1.95898 30.0703 1.75195C30.0703 1.63477 30.0547 1.52539 30.0234 1.42383C29.9961 1.31836 29.9531 1.22656 29.8945 1.14844C29.8359 1.06641 29.7598 1.00391 29.666 0.960938C29.5762 0.914062 29.4707 0.890625 29.3496 0.890625C29.0371 0.890625 28.8027 1.00195 28.6465 1.22461C28.4941 1.44727 28.418 1.75586 28.418 2.15039ZM35.2383 2.89453C35.2383 2.5625 35.2344 2.27344 35.2266 2.02734C35.2188 1.77734 35.207 1.5625 35.1914 1.38281C35.1758 1.19922 35.1562 1.04688 35.1328 0.925781C35.1133 0.804687 35.0918 0.703125 35.0684 0.621094V0.597656C35.1465 0.601563 35.2285 0.603516 35.3145 0.603516C35.3887 0.607422 35.4707 0.609375 35.5605 0.609375C35.6543 0.609375 35.75 0.609375 35.8477 0.609375C35.9883 0.609375 36.1777 0.595703 36.416 0.568359C36.6582 0.541016 36.9688 0.527344 37.3477 0.527344C37.6992 0.527344 38.0234 0.574219 38.3203 0.667969C38.6172 0.757812 38.873 0.888672 39.0879 1.06055C39.3066 1.23242 39.4766 1.44531 39.5977 1.69922C39.7227 1.94922 39.7852 2.23438 39.7852 2.55469C39.7852 2.82422 39.748 3.06641 39.6738 3.28125C39.5996 3.49219 39.4941 3.67773 39.3574 3.83789C39.2246 3.99414 39.0625 4.12695 38.8711 4.23633C38.6836 4.3418 38.4766 4.42578 38.25 4.48828C38.582 4.53906 38.8848 4.625 39.1582 4.74609C39.4316 4.86328 39.666 5.01172 39.8613 5.19141C40.0605 5.37109 40.2129 5.58203 40.3184 5.82422C40.4277 6.0625 40.4824 6.32812 40.4824 6.62109C40.4824 7.44531 40.2109 8.06445 39.668 8.47852C39.125 8.88867 38.3125 9.09375 37.2305 9.09375C37.1133 9.09375 36.9766 9.08789 36.8203 9.07617C36.6641 9.06836 36.5039 9.05859 36.3398 9.04688C36.1797 9.03516 36.0215 9.02344 35.8652 9.01172C35.709 9.00391 35.5723 9 35.4551 9H35.0684V8.97656C35.0918 8.89453 35.1133 8.79297 35.1328 8.67188C35.1562 8.55078 35.1758 8.40039 35.1914 8.2207C35.207 8.04102 35.2188 7.82812 35.2266 7.58203C35.2344 7.33203 35.2383 7.04102 35.2383 6.70898V2.89453ZM37.3887 4.8457C37.123 4.8457 36.9004 4.85547 36.7207 4.875C36.541 4.89453 36.4023 4.91406 36.3047 4.93359V6.70898C36.3047 7.16602 36.3125 7.54297 36.3281 7.83984C36.3438 8.13672 36.3652 8.37891 36.3926 8.56641C36.541 8.58594 36.6895 8.60352 36.8379 8.61914C36.9863 8.63477 37.1055 8.64258 37.1953 8.64258C37.9258 8.64258 38.459 8.48047 38.7949 8.15625C39.1348 7.82812 39.3047 7.32617 39.3047 6.65039C39.3047 6.38477 39.2637 6.14258 39.1816 5.92383C39.1035 5.70117 38.9844 5.50977 38.8242 5.34961C38.668 5.18945 38.4688 5.06641 38.2266 4.98047C37.9883 4.89062 37.709 4.8457 37.3887 4.8457ZM36.3047 4.40625C36.4141 4.41797 36.5117 4.42578 36.5977 4.42969C36.6836 4.42969 36.7754 4.42969 36.873 4.42969C37.1387 4.42969 37.3809 4.39258 37.5996 4.31836C37.8184 4.24023 38.0039 4.125 38.1562 3.97266C38.3125 3.82031 38.4336 3.63086 38.5195 3.4043C38.6055 3.17383 38.6484 2.90625 38.6484 2.60156C38.6484 2.34766 38.6172 2.11719 38.5547 1.91016C38.4922 1.70312 38.3984 1.52734 38.2734 1.38281C38.1523 1.23438 38.002 1.12109 37.8223 1.04297C37.6426 0.964844 37.4375 0.925781 37.207 0.925781C37.0586 0.925781 36.9277 0.931641 36.8145 0.943359C36.7051 0.955078 36.6113 0.96875 36.5332 0.984375C36.4434 1 36.3672 1.01953 36.3047 1.04297V4.40625ZM41.7363 2.70117C42.1191 2.70117 42.5117 2.70117 42.9141 2.70117C43.3164 2.69727 43.6895 2.69336 44.0332 2.68945C44.377 2.68164 44.6719 2.67383 44.918 2.66602C45.168 2.6582 45.332 2.64648 45.4102 2.63086L45.1816 3.26367C45.0762 3.23633 44.957 3.21094 44.8242 3.1875C44.707 3.16797 44.5645 3.15039 44.3965 3.13477C44.2324 3.11523 44.041 3.10547 43.8223 3.10547C43.7441 3.10547 43.6543 3.10938 43.5527 3.11719C43.4512 3.12109 43.3535 3.12695 43.2598 3.13477C43.1504 3.14258 43.0391 3.15039 42.9258 3.1582V5.47266C43.2422 5.46875 43.5273 5.46094 43.7812 5.44922C44.0352 5.4375 44.252 5.42188 44.4316 5.40234C44.6426 5.38672 44.8281 5.36523 44.9883 5.33789L44.8477 6.03516C44.6328 6.00781 44.416 5.98438 44.1973 5.96484C44.0098 5.94531 43.8027 5.92969 43.5762 5.91797C43.3496 5.90234 43.1328 5.89453 42.9258 5.89453V8.55469C43.2891 8.55469 43.623 8.54102 43.9277 8.51367C44.2324 8.48242 44.498 8.44922 44.7246 8.41406C44.9902 8.37109 45.2305 8.32227 45.4453 8.26758L45.3105 9.03516C45.252 9.03125 45.1562 9.02539 45.0234 9.01758C44.8945 9.01367 44.7578 9.00977 44.6133 9.00586C44.4727 9.00586 44.3398 9.00391 44.2148 9C44.0898 9 44.0039 9 43.957 9H41.7363V8.97656C41.7637 8.89453 41.7871 8.78906 41.8066 8.66016C41.8301 8.53125 41.8477 8.37305 41.8594 8.18555C41.875 7.99414 41.8867 7.76758 41.8945 7.50586C41.9023 7.24414 41.9062 6.9375 41.9062 6.58594V5.10938C41.9062 4.75781 41.9023 4.45312 41.8945 4.19531C41.8867 3.93359 41.875 3.70898 41.8594 3.52148C41.8477 3.33008 41.8301 3.16992 41.8066 3.04102C41.7871 2.91211 41.7637 2.80664 41.7363 2.72461V2.70117ZM49.5117 6.58594C49.5117 6.9375 49.5156 7.24414 49.5234 7.50586C49.5312 7.76758 49.541 7.99414 49.5527 8.18555C49.5684 8.37305 49.5859 8.53125 49.6055 8.66016C49.6289 8.78906 49.6543 8.89453 49.6816 8.97656V9H48.3223V8.97656C48.3496 8.89453 48.373 8.78906 48.3926 8.66016C48.416 8.53125 48.4336 8.37305 48.4453 8.18555C48.4609 7.99414 48.4727 7.76758 48.4805 7.50586C48.4883 7.24414 48.4922 6.9375 48.4922 6.58594V6.18164L46.3828 3.39844C46.2422 3.21094 46.1074 3.06055 45.9785 2.94727C45.8496 2.83008 45.752 2.75586 45.6855 2.72461V2.70117H47.3496C47.3496 2.77148 47.375 2.88086 47.4258 3.0293C47.4766 3.17383 47.5801 3.35156 47.7363 3.5625L49.2246 5.53125L50.748 3.48047C50.8574 3.33203 50.9395 3.18555 50.9941 3.04102C51.0527 2.89648 51.082 2.7832 51.082 2.70117H52.1543V2.72461C52.0566 2.79102 51.9551 2.875 51.8496 2.97656C51.748 3.07812 51.6289 3.22266 51.4922 3.41016L49.5117 6.09375V6.58594ZM52.2891 5.83008C52.2891 5.36914 52.375 4.94141 52.5469 4.54688C52.7227 4.15234 52.9609 3.81055 53.2617 3.52148C53.5625 3.22852 53.918 3 54.3281 2.83594C54.7383 2.67188 55.1777 2.58984 55.6465 2.58984C56.1074 2.58984 56.541 2.66797 56.9473 2.82422C57.3574 2.97656 57.7129 3.19531 58.0137 3.48047C58.3184 3.76562 58.5586 4.11133 58.7344 4.51758C58.9102 4.92383 58.998 5.37891 58.998 5.88281C58.998 6.30078 58.9238 6.70508 58.7754 7.0957C58.627 7.48242 58.4102 7.82617 58.125 8.12695C57.8398 8.42383 57.4883 8.66211 57.0703 8.8418C56.6523 9.01758 56.1738 9.10547 55.6348 9.10547C55.1777 9.10547 54.7461 9.0293 54.3398 8.87695C53.9336 8.72461 53.5781 8.50781 53.2734 8.22656C52.9688 7.94141 52.7285 7.59766 52.5527 7.19531C52.377 6.78906 52.2891 6.33398 52.2891 5.83008ZM55.7812 8.68945C56.0781 8.68945 56.3516 8.63086 56.6016 8.51367C56.8516 8.39648 57.0664 8.22852 57.2461 8.00977C57.4297 7.79102 57.5703 7.52539 57.668 7.21289C57.7695 6.89648 57.8203 6.54102 57.8203 6.14648C57.8203 5.69727 57.7715 5.28125 57.6738 4.89844C57.5801 4.51562 57.4355 4.18555 57.2402 3.9082C57.0488 3.62695 56.8086 3.4082 56.5195 3.25195C56.2305 3.0918 55.8926 3.01172 55.5059 3.01172C55.209 3.01172 54.9355 3.06836 54.6855 3.18164C54.4355 3.29492 54.2188 3.45898 54.0352 3.67383C53.8555 3.88867 53.7148 4.15234 53.6133 4.46484C53.5117 4.77734 53.4609 5.13281 53.4609 5.53125C53.4609 5.97656 53.5098 6.39258 53.6074 6.7793C53.709 7.16211 53.8555 7.49609 54.0469 7.78125C54.2422 8.0625 54.4844 8.28516 54.7734 8.44922C55.0625 8.60938 55.3984 8.68945 55.7812 8.68945ZM65.8242 9.08203H65.5957L60.9375 4.5V6.58594C60.9375 6.9375 60.9395 7.24414 60.9434 7.50586C60.9473 7.76758 60.9531 7.99414 60.9609 8.18555C60.9727 8.37305 60.9863 8.53125 61.002 8.66016C61.0215 8.78906 61.0449 8.89453 61.0723 8.97656V9H60.1934V8.97656C60.2207 8.89453 60.2441 8.78906 60.2637 8.66016C60.2832 8.53125 60.2988 8.37305 60.3105 8.18555C60.3223 7.99414 60.3301 7.76758 60.334 7.50586C60.3379 7.24414 60.3398 6.9375 60.3398 6.58594V5.10938C60.3398 4.75781 60.3379 4.45312 60.334 4.19531C60.3301 3.93359 60.3223 3.70898 60.3105 3.52148C60.2988 3.33008 60.2832 3.16992 60.2637 3.04102C60.2441 2.91211 60.2207 2.80664 60.1934 2.72461V2.70117H60.5566L65.2207 7.30664V5.10938C65.2207 4.75781 65.2188 4.45312 65.2148 4.19531C65.2109 3.93359 65.2031 3.70898 65.1914 3.52148C65.1836 3.33008 65.1719 3.16992 65.1562 3.04102C65.1406 2.91211 65.1191 2.80664 65.0918 2.72461V2.70117H65.9648V2.72461C65.9375 2.80664 65.9141 2.91211 65.8945 3.04102C65.8789 3.16992 65.8652 3.33008 65.8535 3.52148C65.8418 3.70898 65.834 3.93359 65.8301 4.19531C65.8262 4.45312 65.8242 4.75781 65.8242 5.10938V9.08203ZM68.7188 3.11719C68.7148 3.4375 68.7109 3.74805 68.707 4.04883C68.707 4.17773 68.7051 4.31055 68.7012 4.44727C68.7012 4.58008 68.6992 4.71289 68.6953 4.8457C68.6953 4.97852 68.6953 5.10547 68.6953 5.22656C68.6953 5.34375 68.6953 5.44922 68.6953 5.54297C68.6953 5.73828 68.6953 5.97461 68.6953 6.25195C68.6992 6.52539 68.7031 6.80664 68.707 7.0957C68.7109 7.38477 68.7168 7.66406 68.7246 7.93359C68.7324 8.19922 68.7422 8.42188 68.7539 8.60156C68.793 8.60938 68.8438 8.61719 68.9062 8.625C68.9688 8.62891 69.0332 8.63477 69.0996 8.64258C69.1699 8.64648 69.2383 8.65039 69.3047 8.6543C69.3711 8.6543 69.4277 8.6543 69.4746 8.6543C69.6895 8.6543 69.9062 8.64062 70.125 8.61328C70.3477 8.58594 70.5605 8.53516 70.7637 8.46094C70.9707 8.38281 71.1641 8.27734 71.3438 8.14453C71.5234 8.01172 71.6797 7.8418 71.8125 7.63477C71.9492 7.42383 72.0547 7.17188 72.1289 6.87891C72.207 6.58203 72.2461 6.23242 72.2461 5.83008C72.2461 4.94336 72.0332 4.25977 71.6074 3.7793C71.1855 3.29883 70.5547 3.05859 69.7148 3.05859C69.6328 3.05859 69.5449 3.06055 69.4512 3.06445C69.3613 3.06836 69.2715 3.07422 69.1816 3.08203C69.0918 3.08594 69.0059 3.0918 68.9238 3.09961C68.8457 3.10742 68.7773 3.11328 68.7188 3.11719ZM67.5059 2.68945C67.5996 2.69336 67.6875 2.69531 67.7695 2.69531C67.8398 2.69922 67.9082 2.70117 67.9746 2.70117C68.041 2.70117 68.0898 2.70117 68.1211 2.70117C68.1758 2.70117 68.2734 2.69922 68.4141 2.69531C68.5547 2.69141 68.7129 2.6875 68.8887 2.68359C69.0684 2.67578 69.2559 2.66992 69.4512 2.66602C69.6504 2.6582 69.834 2.6543 70.002 2.6543C70.459 2.6543 70.8945 2.70703 71.3086 2.8125C71.7227 2.91797 72.0859 3.0918 72.3984 3.33398C72.7148 3.57227 72.9648 3.88672 73.1484 4.27734C73.332 4.66406 73.4238 5.14258 73.4238 5.71289C73.4238 6.32617 73.3184 6.8457 73.1074 7.27148C72.8965 7.69727 72.6113 8.04492 72.252 8.31445C71.8926 8.58008 71.4746 8.77344 70.998 8.89453C70.5254 9.01172 70.0254 9.07031 69.498 9.07031C69.373 9.07031 69.2168 9.06641 69.0293 9.05859C68.8418 9.05078 68.6504 9.04297 68.4551 9.03516C68.2598 9.02734 68.0742 9.01953 67.8984 9.01172C67.7266 9.00391 67.5957 9 67.5059 9V8.97656C67.5332 8.89453 67.5566 8.78906 67.5762 8.66016C67.5996 8.53125 67.6172 8.37305 67.6289 8.18555C67.6445 7.99414 67.6562 7.76758 67.6641 7.50586C67.6719 7.24414 67.6758 6.9375 67.6758 6.58594V5.10938C67.6758 4.75781 67.6719 4.45117 67.6641 4.18945C67.6562 3.92773 67.6445 3.70117 67.6289 3.50977C67.6172 3.31836 67.5996 3.1582 67.5762 3.0293C67.5566 2.90039 67.5332 2.79492 67.5059 2.71289V2.68945Z" fill="black"/>
</svg>
